. 
 
http://www.torrenting.com          :     Once & For all ;)


               www . Torrenting . Com 

(((((((((((((= Enjoy No RAR releases =))))))))))))))))))))


...................................NFO:....................................

.[align=center]
        [/align]
[size=3][color=#009999]



      Tinker Tailor Soldier Spy 2011 720p BRRIP XVID AC3 - Xtreme Encode



[/color][/size]


[size=3]
[color=#CC9933]General


Complete name                    : C:\Users\root\Desktop\Tinker Tailor Soldier Spy 2011 720p BRRIP XVID AC3 - Xtreme Encode\Tinker Tailor Soldier Spy 2011 720p BRRIP XVID AC3 - Xtreme Encode.avi
Format                           : AVI
Format/Info                      : Audio Video Interleave
Format profile                   : OpenDML
Format settings                  : rec
File size                        : 2.69 GiB
Duration                         : 2h 7mn
Overall bit rate                 : 3 028 Kbps[/color][/size]




[size=3][color=#669900]
Video


ID                               : 0
Format                           : MPEG-4 Visual
Format profile                   : Advanced Simple@L5
Format settings, BVOP            : 2
Format settings, QPel            : No
Format settings, GMC             : No warppoints
Format settings, Matrix          : Default (H.263)
Muxing mode                      : Packed bitstream
Codec ID                         : XVID
Codec ID/Hint                    : XviD
Duration                         : 2h 7mn
Bit rate                         : 2 382 Kbps
Width                            : 1 280 pixels
Height                           : 544 pixels
Display aspect ratio             : 2.35:1
Frame rate                       : 23.976 fps
Color space                      : YUV
Chroma subsampling               : 4:2:0
Bit depth                        : 8 bits
Scan type                        : Progressive
Compression mode                 : Lossy
Bits/(Pixel*Frame)               : 0.143
Stream size                      : 2.12 GiB (79%)[/color][/size]




[size=3][color=#009900]Audio


ID                               : 1
Format                           : AC-3
Format/Info                      : Audio Coding 3
Mode extension                   : CM (complete main)
Codec ID                         : 2000
Duration                         : 2h 7mn
Bit rate mode                    : Constant
Bit rate                         : 640 Kbps
Channel(s)                       : 6 channels
Channel positions                : Front: L C R, Side: L R, LFE
Sampling rate                    : 48.0 KHz
Bit depth                        : 16 bits
Compression mode                 : Lossy
Stream size                      : 583 MiB (21%)
Alignment                        : Aligned on interleaves
Interleave, duration             : 64 ms (1.53 video frames)
Interleave, preload duration     : 192 ms[/color][/size]





[size=3][color=#6699FF]
SOURCE
Video : 720p BluRay x264-iNFAMOUS
Audio : 720p BluRay x264-iNFAMOUS



JUST A LITTLE MESS WITH THIS ADDES BIT OF CONTRAS 
RESIZED BIT TWEAKED BIT SHARPEN in 
SAT HUE and few othere things :)[/color][/size]




[size=3][color=#0099CC]PLOT

In the bleak days of the Cold War, 
espionage veteran 
George Smiley is forced from 
semi-retirement to uncover a 
Soviet agent within MI6's echelons. 
 


 [/color][/size]


[size=3][color=#CC6600]Genres: Drama | Mystery | Thriller



Director: Tomas Alfredson

Writers: Bridget O'Connor (screenplay), Peter Straughan (screenplay)

Stars: Gary Oldman, Colin Firth and Tom Hardy [/color][/size]



[size=3][color=#0033FF]IMDB: http://www.imdb.com/title/tt1340800/[/color][/size]



[size=3][color=#996600]HOPE U ALL LIKE THIS IF SO PLS REP :)[/color][/size]


[size=3][color=#CC0000]
SCREENS:





[/color][/size]


[size=3][b][font=Times New Roman][color=#3366CC]
      GREETS:

IMAGiNE / ELEKTRI4KA / FLAWL3SS  
ViSiON / CRYS / BMB / MiSTERE / 26K
AMB / FYA / Jamie111 / VISUALiSE  
ILLUMINATI / Rx / REFiLL / BHRG
TO MY FRIENDS  AND ALL OTHER GROUPS  :)[/color][/font][/b][/size]